/* XPM */
static char *_623775207137[] = {
/* columns rows colors chars-per-pixel */
"40 40 149 2 ",
"   c #010101",
".  c #0D1411",
"X  c #131816",
"o  c #181D1A",
"O  c #17241E",
"+  c #163A1E",
"@  c #1C2C25",
"#  c #202824",
"$  c #22352D",
"%  c #343C2F",
"&  c #2D3632",
"*  c #263C33",
"=  c #2A3D35",
"-  c #1B4124",
";  c #23432F",
":  c #3A4028",
">  c #294137",
",  c #2B443A",
"<  c #2E483D",
"1  c #34453E",
"2  c #2A5939",
"3  c #5B653D",
"4  c #67683B",
"5  c #314C41",
"6  c #3A4842",
"7  c #37564A",
"8  c #365948",
"9  c #395A4C",
"0  c #375342",
"q  c #3E6153",
"w  c #3D6F58",
"e  c #3D7E52",
"r  c #414F49",
"t  c #43524B",
"y  c #4B5C55",
"u  c #5A6749",
"i  c #546149",
"p  c #416557",
"a  c #416957",
"s  c #416758",
"d  c #4F615A",
"f  c #446B5B",
"g  c #4A6A5D",
"h  c #54675F",
"j  c #43725B",
"k  c #636C41",
"l  c #5C6C60",
"z  c #4A7463",
"x  c #4C7967",
"c  c #4E7B69",
"v  c #507E6B",
"b  c #5A766A",
"n  c #667D73",
"m  c #7E8020",
"M  c #438B5B",
"N  c #4F8C6A",
"B  c #52846E",
"V  c #548470",
"C  c #5B8573",
"Z  c #568974",
"A  c #598B76",
"S  c #598D78",
"D  c #5D937D",
"F  c #678678",
"G  c #56A07D",
"H  c #8F932B",
"J  c #969A3F",
"K  c #9D9F38",
"L  c #ACAD2F",
"P  c #D4D23A",
"I  c #E0DD39",
"U  c #E9E73C",
"Y  c #A6AA53",
"T  c #728E82",
"R  c #629580",
"E  c #639B84",
"W  c #669F88",
"Q  c #7A9486",
"!  c #7B978B",
"~  c #769185",
"^  c #5FAC80",
"/  c #67A28A",
"(  c #69A48C",
")  c #6BA88F",
"_  c #6DAB92",
"`  c #6DB295",
"'  c #71B297",
"]  c #74B69B",
"[  c #76B99E",
"{  c #79BEA2",
"}  c #69C298",
"|  c #7BC2A5",
" . c #79CAA7",
".. c #7FC7AA",
"X. c #7FC8AA",
"o. c #79DFAF",
"O. c #7BD3A4",
"+. c #7CDEB1",
"@. c #7DE1B3",
"#. c #86938F",
"$. c #82A294",
"%. c #8DAD9E",
"&. c #96B59E",
"*. c #B8B999",
"=. c #8EAFA1",
"-. c #91B3A4",
";. c #96B7A8",
":. c #99BBAC",
">. c #82CBAD",
",. c #9DC0AE",
"<. c #84CFB1",
"1. c #86D2B3",
"2. c #88D7B7",
"3. c #8CDBBB",
"4. c #84D9B5",
"5. c #A1C6B6",
"6. c #A6CBBB",
"7. c #A9CFBE",
"8. c #A9D0BF",
"9. c #81E2B7",
"0. c #84E5B9",
"q. c #8AE5BE",
"w. c #84E8BB",
"e. c #88E9BE",
"r. c #ACD3C2",
"t. c #B0D7C6",
"y. c #B1D8C7",
"u. c #B4DDCB",
"i. c #8EE3C0",
"p. c #8EE9C2",
"a. c #91E3C2",
"s. c #93EAC6",
"d. c #96ECC9",
"f. c #98EECB",
"g. c #9AF2CE",
"h. c #9CF5D1",
"j. c #9EF8D3",
"k. c #B7E0CE",
"l. c #BFEAD6",
"z. c #BCE6D3",
"x. c #C2ECD9",
"c. c #C5F1DD",
"v. c #C7F4E0",
"b. c #C8F6E2",
"n. c #CCFAE6",
"m. c #CEFDE8",
"M. c #D1FFEB",
"N. c #D6FFF0",
"B. c None",
/* pixels */
"B.B.B.B.B.B.B.B.B.B.B.B.B.B.B.B.B.B.B.B.B.B.B.B.B.B.B.B.B.B.B.B.B.B.B.B.B.B.B.B.",
"B.B.B.B.B.B.B.B.B.B.B.B.B.B.B.B.B.B.B.B.B.B.B.B.B.B.B.B.B.B.B.B.B.B.B.B.B.B.B.B.",
"B.B.B.B.B.B.B.B.B.B.B.B.B.B.B.B.B.B.B.B.B.B.B.B.B.B.B.B.B.B.B.B.B.B.B.B.B.B.B.B.",
"B.B.B.B.B.B.B.B.B.B.B.B.B.B.B.B.B.B.B.B.B.B.B.B.B.B.B.B.B.B.B.B.B.B.B.B.B.B.B.B.",
"B.B.B.B.B.B.B.B.B.B.B.B.B.B.B.B.B.B.B.B.B.B.B.B.B.B.B.B.B.B.B.B.B.B.B.B.B.B.B.B.",
"B.B.B.B.B.B.B.B.B.B.B.B.B.B.B.B.p ' ] [ D ; B.B.B.B.B.B.B.B.B.B.B.B.B.B.B.B.B.B.",
"B.B.B.B.B.B.B.B.B.B.B.B.B.B.= [ s.@.d.e.d.2.q B.B.B.B.B.B.B.B.B.B.B.B.B.B.B.B.B.",
"B.B.B.B.B.B.B.B.B.B.B.B.B.  z _ D ` @.w.s.w./ B.B.B.B.B.B.B.B.B.B.B.B.B.B.B.B.B.",
"B.B.B.B.B.B.B.B.B.o X y ! Q 1 v S Z w x } 4.a.< B.B.B.B.B.B.B.B.z A A q B.B.B.B.",
"B.B.B.B.B.B.B.t =.y.r.x.N.N.7.D s.g. .{ j z s B.B.B.B.B.B.B.> Z s.h.h.3.s B.B.B.",
"B.B.B.B.B.B.n c.N.M.N.M.M.M.M.6.C d.@.q.f.i.R 5 B.B.B.B.B.7 <.f.d.d.g.h.' B.B.B.",
"B.B.B.B.B.n c.M.7.b.6.b.6.n.m.n.F | @.q.f.f.g...5 B.B.B.9 1.g.f.d.d._ R f   B.B.",
"B.B.B.B.# 8.M.N.;.l : 3 F N.M.N.:.Z p.w.p.9.s.w.| < B.7 <.h.2./ f f D / ) 5 B.B.",
"B.B.B.B.n M.M.u.#.*.L I K ,.M.N.:.A h.p.o.q.o.q.@.a.( >.a.R x E 3.2.d.d.( = B.B.",
"B.B.B.& r.M.n.d 4 Y H I P % k.M.c.n 2.9.q.w.q.9.p.f.g.>.f ) i.a.{ { c f / E O B.",
"B.- + & b.M.M.r.3 4 L U K &.m.m.m.=.E s.w.s.q.s.q.p.q.d.3.S V v c c ..i.g.3.$ B.",
"B.; ^ 0 b.m.m.N.r.i 3 k &.M.M.M.m.x.g d.+.0.+.w.+.p.+.p.s.{ { <.g.f.f.d.d.d.D B.",
"B.z _ 6 b.M.m.M.M.n.b.b.M.m.M.M.M.z.z s.+.p.@.p.+.w.+.d.s.A c W q.3.f.h.f.a.z B.",
"B.$ O & b.m.M.m.M.M.M.m.M.M.M.M.M.T ] p.s.p.p.p.s.d.s.3._ { | E p f W _ a.3.@ B.",
"B.B.B.B.-.N.m.M.M.M.m.M.M.m.M.M.y.C a.w.9.0.9.9.0.g.s.<.A z { a.f.d./ A c y . B.",
"B.B.B.B.l c.m.m.M.M.m.M.M.m.M.M.:.C h.0.@.0.@.0.9.' z _ h.<.Z c / / i.h.2.7 B.B.",
"B.B.B.B.B.:.N.m.m.M.m.M.M.m.M.M.-.D 0.p.d.p.s.p.W B.B.B.) g.f.>.R D z f f @ B.B.",
"B.B.B.B.B.t r.M.M.M.M.M.M.M.M.c.l i.@.0.g.d.d.W B.B.B.B.B._ f.f.g.g.2.2.R B.B.B.",
"B.B.B.B.B.B.r 5.c.N.N.M.M.M.M.$._ d.@.d.<.{ 8 B.B.B.B.B.B.B.( 3.f.f.f.g./ B.B.B.",
"B.B.B.B.B.B.B.B.b ! Q :.M.n.$.( s.a.D B 2 j N B.B.B.B.B.B.B.B.7 1.d.s.] * B.B.B.",
"B.B.B.B.B.B.B.B.B.B.B.B.t 6 = s s a e M O.s.3., B.B.B.B.B.B.B.B.> 5 5 $ B.B.B.B.",
"B.B.B.B.B.B.B.B.B.B.B.B.B.B.c 3.a.q.s.f.g.h.S B.B.B.B.B.B.B.B.B.B.B.B.B.B.B.B.B.",
"B.B.B.B.B.B.B.B.B.B.B.B.B.B.B.V >.g.g.g.3.) , B.B.B.B.B.B.B.B.B.B.B.B.B.B.B.B.B.",
"B.B.B.B.B.B.B.B.B.B.B.B.B.B.B.B.$ z z z 9 B.B.B.B.B.B.B.B.B.B.B.B.B.B.B.B.B.B.B.",
"B.B.B.B.B.B.B.B.B.B.B.B.B.B.B.B.B.B.B.B.B.B.B.B.B.B.B.B.B.B.B.B.B.B.B.B.B.B.B.B.",
"B.B.B.B.B.B.B.B.B.B.B.B.B.B.B.B.B.B.B.B.B.B.B.B.B.B.B.B.B.B.B.B.B.B.B.B.B.B.B.B.",
"B.B.B.B.B.B.B.B.B.B.B.B.B.B.B.B.B.B.B.B.B.B.B.B.B.B.B.B.B.B.B.B.B.B.B.B.B.B.B.B.",
"B.B.B.B.B.B.B.B.B.B.B.B.B.B.B.B.B.B.B.B.B.B.B.B.B.B.B.B.B.B.B.B.B.B.B.B.B.B.B.B.",
"B.B.B.B.B.B.B.B.B.B.B.B.B.B.B.B.B.B.B.B.B.B.B.B.B.B.B.B.B.B.B.B.B.B.B.B.B.B.B.B.",
"B.B.B.B.B.B.B.B.B.B.B.B.B.B.B.B.B.B.B.B.B.B.B.B.B.B.B.B.B.B.B.B.B.B.B.B.B.B.B.B.",
"B.B.B.B.B.B.B.B.B.B.B.B.B.B.B.B.B.B.B.B.B.B.B.B.B.B.B.B.B.B.B.B.B.B.B.B.B.B.B.B.",
"B.B.B.B.B.B.B.B.B.B.B.B.B.B.B.B.B.B.B.B.B.B.B.B.B.B.B.B.B.B.B.B.B.B.B.B.B.B.B.B.",
"B.B.B.B.B.B.B.B.B.B.B.B.B.B.B.B.B.B.B.B.B.B.B.B.B.B.B.B.B.B.B.B.B.B.B.B.B.B.B.B.",
"B.B.B.B.B.B.B.B.B.B.B.B.B.B.B.B.B.B.B.B.B.B.B.B.B.B.B.B.B.B.B.B.B.B.B.B.B.B.B.B.",
"B.B.B.B.B.B.B.B.B.B.B.B.B.B.B.B.B.B.B.B.B.B.B.B.B.B.B.B.B.B.B.B.B.B.B.B.B.B.B.B."
};
