/* XPM */
static char *_623769102622[] = {
/* columns rows colors chars-per-pixel */
"40 40 21 1 ",
"  c #191B23",
". c #1B1D25",
"X c #25272F",
"o c #2E3037",
"O c #333643",
"+ c #3B3C44",
"@ c #3E414F",
"# c #454858",
"$ c #62626C",
"% c #6B6D75",
"& c #A3A4A7",
"* c #A2A4AC",
"= c #A9A6B1",
"- c #ADADB4",
"; c #BEBFC5",
": c #D2D3D6",
"> c #D2D3D7",
", c #DFE0E3",
"< c #E9E9EB",
"1 c white",
"2 c None",
/* pixels */
"2222222222222222222222222222222222222222",
"2222222222222222222222222222222222222222",
"2222222222222222222222222222222222222222",
"2222222222222222211=OO222222222222222222",
"2222222222222222-1#$ O  O+22222222222222",
"222222222222222->;#  O   O22222222222222",
"22222222222222->1 O@O   2222222222222222",
"22222222222222#>1      22222222222222222",
"22222222222222#111    222222222222222222",
"22222222222222 >1111>-*22222222222222222",
"22222222222222  >111>- 22222222222222222",
"22222222222222   1      2222222222222222",
"22222222222222     # ;  @222222222222222",
"2222222222222     #1111   22222222222222",
"222222222222      *111;&   2222222222222",
"22222222222    # *111;,>*   222222222222",
"2222222222     # 1111<11*    22222222222",
"222222222        1111111*     2222222222",
"22222222      # %1111111*      222222222",
"22222222        %1111111>      222222222",
"2222222         *1111111*2      22222222",
"2222222    2   O11111111>222    22222222",
"222222    22  #%11111111>2222    2222222",
"222222   222 # %11111111122222   2222222",
"222222  22222#%*1111111,1222222  2222222",
"222222  22222%&111111111>222222  2222222",
"222222 222222**111111111*2222222 2222222",
"2222222222222*>11111111, 222222222222222",
"2222222222222 ;11111111; 222222222222222",
"2222222222222 *1111111;X2222222222222222",
"2222222222222  *111; *X.2222222222222222",
"2222222222222   o1* *X  2222222222222222",
"2222222222222#  #X  o. 22222222222222222",
"22222222222222  #  #2 222222222222222222",
"22222222222222  22222  22222222222222222",
"222222222222222  22222  2222222222222222",
"2222222222222222222222222222222222222222",
"2222222222222222222222222222222222222222",
"2222222222222222222222222222222222222222",
"2222222222222222222222222222222222222222"
};
