/* XPM */
static char *_623777195211[] = {
/* columns rows colors chars-per-pixel */
"40 40 58 1 ",
"  c #0F1C1F",
". c #101E1E",
"X c #1E2F17",
"o c #14231C",
"O c #18271B",
"+ c #1B2B19",
"@ c #1F3017",
"# c #223415",
"$ c #263815",
"% c #2A3B16",
"& c #24341B",
"* c #28371D",
"= c #2D3D1A",
"- c #0D1A20",
"; c #111E21",
": c #152121",
"> c #192622",
", c #1D2A22",
"< c #202D22",
"1 c #243122",
"2 c #293523",
"3 c #2F3D24",
"4 c #323F24",
"5 c #2F4019",
"6 c #34441B",
"7 c #37481C",
"8 c #3A4A1E",
"9 c #3F501F",
"0 c #344223",
"q c #3A4624",
"w c #3D4A23",
"e c #354228",
"r c #3E4C2C",
"t c #414E23",
"y c #465323",
"u c #495724",
"i c #4C5B25",
"p c #45532A",
"a c #4A5728",
"s c #4E5A2A",
"d c #505E27",
"f c #515D28",
"g c #526227",
"h c #556329",
"j c #59662B",
"k c #5C6A2C",
"l c #5F6D31",
"z c #616F2E",
"x c #63712F",
"c c #657330",
"v c #697631",
"b c #6C7A33",
"n c #727F35",
"m c #758236",
"M c #788637",
"N c #7A8738",
"B c #7C8A39",
"V c None",
/* pixels */
"VVVVVVVVVVVVVVVVVVVVVVVVVVVVVVVVVVVVVVVV",
"VVVVVVVVVVVVVVVVVVVVVVVVVVVVVVVVVVVVVVVV",
"VVVVVVVVVVVVVVVVVVBBVVVVVVVVVVVVVVVVVVVV",
"VVVVVVVVVVVVVVVBBVVBBVVzVVVVVVVVVVVVVVVV",
"VVVVVVVVVVVVVBVVBBVVBVjhVBVVVVVVVVVVVVVV",
"VVVVVVVVVVVVVBBVVNVvN77VVBckvVVVVVVVVVVV",
"VVVVVVVVVVbVVVmVVxkmb7xMVMg6VVVVVVVVVVVV",
"VVVVVVVVVVjnVNmj8cBnkjvVVnsVVVVVVVVVVVVV",
"VVVVVVVVVV7ujivn8kh7yydh5ifVVVVVVVVVVVVV",
"VVVVVVVVVVVVky8hxx7u97xukbVVBVVVVVVVVVVV",
"VVVVVVVVVVVBBfyjBkhBjxm7hMvMVVVVVVVVVVVV",
"VVVVVVVVVVVVnjjvk8ybykh8imccVVVVVVVVVVVV",
"VVVVVVVVVV$$7jnh7%7dku%6hnhhVVVVVVVVVVVV",
"VVVVVVVVVVVgdini=9dvmh98ifjMVVVVVVVVVVVV",
"VVVVVVVVVVVvbfmi8=fNdkz7wzNk%$VVVVVVVVVV",
"VVVVVVVV$V7677gxM87zykx$$xv=$VVVVVVVVVVV",
"VVVVVVVVV*lx5@6sM96ii9%59iy%VVVVVVVVVVVV",
"VVVVVVVBVV,rizy=vczMbd5jdt%76VBBnVVVVVVV",
"VVVVVVdjmBi&xBf5ubju$%sn76ky7mMk9VVVVVVV",
"VVVVVVVV7kk9xr3bd3@upwvh%xvtkk7%VVVVVVVV",
"VVVVVVVVy*%0<:4ni<4zNzjqhp=wi7VVVVVVVVVV",
"VVVVVVVV6w,;oilt>quvftw;e1#6+#$#+VVVVVVV",
"VVVVVVVVV8bhtws0;q=1,<4-2t6;-X#oVVVVVVVV",
"VVVVVVfi7wiat:0,+=+<p;>qqt6o-o;VVVVVVVVV",
"VVVVVV1007+@:O+X#Xo>w*,*+;#X-VVVVVVVVVVV",
"VVVVVoXX#O--;..o+1q:o#X-;+oOoV--VVVVVVVV",
"VVVVVV+OX#.-+.O.1sq+ o+X:o---o+.-VVVVVVV",
"VVVVVVVV .-OXO#o,4X#@@#o;o---XX-VVVVVVVV",
"VVVVV-oV .X#OOo--;Xooo-o##X o#oVVVVVVVVV",
"VVVVV-O$X.+ -ooXo-.oo#oo+O+ -o#oVVVVVVVV",
"VVVVVVVo+---- @+ o++ +#o o;;+#X-VVVVVVVV",
"VVVVVVV-VVV--oO.oX ---#o XXoooVVVVVVVVVV",
"VVVVVVVVVVVVVV-- ;----+ -.VVVVVVVVVVVVVV",
"VVVVVVVVVVVVVVVVVVVVVVVVVVVVVVVVVVVVVVVV",
"VVVVVVVVVVVVVVVVVVVVVVVVVVVVVVVVVVVVVVVV",
"VVVVVVVVVVVVVVVVVVVVVVVVVVVVVVVVVVVVVVVV",
"VVVVVVVVVVVVVVVVVVVVVVVVVVVVVVVVVVVVVVVV",
"VVVVVVVVVVVVVVVVVVVVVVVVVVVVVVVVVVVVVVVV",
"VVVVVVVVVVVVVVVVVVVVVVVVVVVVVVVVVVVVVVVV",
"VVVVVVVVVVVVVVVVVVVVVVVVVVVVVVVVVVVVVVVV"
};
